<svg xmlns="http://www.w3.org/2000/svg" width="71.691" height="71.701" viewBox="0 0 71.691 71.701"><defs><style>.a{fill:#707070;}</style></defs><path class="a" d="M70.273,40.346a9.224,9.224,0,0,1,5.918-8.608,36.568,36.568,0,0,0-4.426-10.66,9.349,9.349,0,0,1-3.753.8,9.205,9.205,0,0,1-8.42-12.956A36.455,36.455,0,0,0,48.957,4.5a9.218,9.218,0,0,1-17.2,0A36.568,36.568,0,0,0,21.078,8.926a9.205,9.205,0,0,1-8.42,12.956,9.046,9.046,0,0,1-3.753-.8A37.375,37.375,0,0,0,4.5,31.756a9.221,9.221,0,0,1,.019,17.2A36.568,36.568,0,0,0,8.945,59.62,9.209,9.209,0,0,1,21.1,71.775,36.781,36.781,0,0,0,31.76,76.2a9.2,9.2,0,0,1,17.175,0,36.568,36.568,0,0,0,10.66-4.426A9.218,9.218,0,0,1,71.75,59.632a36.781,36.781,0,0,0,4.426-10.66A9.268,9.268,0,0,1,70.273,40.346ZM40.515,55.263A14.936,14.936,0,1,1,55.45,40.327,14.936,14.936,0,0,1,40.515,55.263Z" transform="translate(-4.5 -4.5)"/></svg>